<?xml version="1.0" standalone="no"?>
<!DOCTYPE svg PUBLIC "-//W3C//DTD SVG 20010904//EN"
 "http://www.w3.org/TR/2001/REC-SVG-20010904/DTD/svg10.dtd">
<svg version="1.0" xmlns="http://www.w3.org/2000/svg"
 width="300.000000pt" height="154.000000pt" viewBox="0 0 300.000000 154.000000"
 preserveAspectRatio="xMidYMid meet">

<g transform="translate(0.000000,154.000000) scale(0.100000,-0.100000)"
fill="#000000" stroke="none">
<path d="M668 1358 c-30 -27 -488 -1032 -488 -1070 0 -25 21 -50 53 -61 29
-11 63 12 85 57 70 145 462 1018 462 1030 0 22 -32 55 -61 61 -19 5 -33 0 -51
-17z"/>
<path d="M761 1047 c-63 -149 -165 -390 -226 -535 l-113 -262 73 0 73 0 69
163 69 162 220 3 220 2 66 -162 66 -163 71 -3 c39 -2 71 1 71 5 0 4 -98 245
-217 535 l-217 528 -56 0 -55 0 -114 -273z m261 -134 l85 -218 -88 -3 c-48 -1
-130 -1 -182 0 l-93 3 90 218 c49 119 93 217 96 217 4 0 45 -98 92 -217z"/>
<path d="M1420 980 c0 -127 4 -208 11 -224 14 -30 59 -48 100 -39 36 7 43 17
35 49 -5 20 -12 24 -34 22 l-27 -3 -3 198 -2 197 -40 0 -40 0 0 -200z"/>
<path d="M1680 967 c0 -191 2 -215 18 -229 28 -24 52 -29 91 -18 35 9 37 12
33 40 -4 28 -8 31 -36 28 l-31 -3 -3 198 -2 197 -35 0 -35 0 0 -213z"/>
<path d="M2020 1053 c-135 -55 -148 -253 -20 -320 52 -28 91 -29 146 -4 113
51 130 215 32 294 -29 24 -50 31 -90 33 -29 2 -60 1 -68 -3z m101 -73 c24 -13
49 -61 49 -95 0 -56 -47 -105 -100 -105 -28 0 -78 47 -85 80 -8 38 11 96 38
115 25 17 70 20 98 5z"/>
<path d="M2320 1055 c0 -3 32 -80 72 -171 70 -163 72 -165 101 -162 24 3 32
11 51 55 12 29 24 55 27 58 3 3 17 -22 30 -55 22 -55 26 -60 54 -60 28 0 32 5
67 88 20 48 52 124 72 170 l35 82 -38 0 -38 0 -48 -115 c-26 -63 -49 -115 -52
-115 -2 0 -12 19 -22 42 l-18 43 29 69 c15 38 28 70 28 72 0 2 -15 4 -34 4
-30 0 -36 -4 -49 -37 l-15 -38 -15 38 c-14 31 -21 37 -46 37 -17 0 -31 -4 -31
-8 0 -5 12 -37 26 -72 25 -62 25 -64 9 -107 -10 -24 -20 -41 -24 -38 -3 3 -27
54 -52 113 -45 106 -46 107 -82 110 -21 2 -37 1 -37 -3z"/>
<path d="M2060 560 l0 -71 -32 17 c-76 39 -173 -10 -198 -102 -15 -53 -8 -96
24 -145 42 -63 114 -84 180 -53 30 15 36 15 56 1 32 -22 60 -11 60 24 0 16 -4
29 -10 29 -6 0 -10 68 -10 185 l0 185 -35 0 -35 0 0 -70z m-23 -132 c18 -17
23 -32 23 -74 0 -64 -25 -94 -77 -94 -73 0 -111 101 -62 164 27 34 82 36 116
4z"/>
<path d="M1630 410 l0 -210 35 0 35 0 0 210 0 210 -35 0 -35 0 0 -210z"/>
</g>
</svg>
