<?xml version="1.0" standalone="no"?>
<!DOCTYPE svg PUBLIC "-//W3C//DTD SVG 20010904//EN"
 "http://www.w3.org/TR/2001/REC-SVG-20010904/DTD/svg10.dtd">
<svg version="1.0" xmlns="http://www.w3.org/2000/svg"
 width="500.000000pt" height="500.000000pt" viewBox="0 0 500.000000 500.000000"
 preserveAspectRatio="xMidYMid meet">

<g transform="translate(0.000000,500.000000) scale(0.100000,-0.100000)"
fill="#000000" stroke="none">
<path d="M0 2500 l0 -2500 2500 0 2500 0 0 2500 0 2500 -2500 0 -2500 0 0
-2500z m1490 665 l0 -305 25 0 c18 0 25 -5 25 -20 0 -19 -7 -20 -90 -20 -73 0
-90 3 -90 15 0 8 7 15 15 15 30 0 35 39 35 298 l0 259 -30 -5 c-25 -4 -30 -1
-30 16 0 17 8 22 38 27 20 4 46 10 57 15 46 20 45 27 45 -295z m230 0 l0 -305
25 0 c18 0 25 -5 25 -20 0 -19 -7 -20 -90 -20 -66 0 -90 3 -90 13 0 7 10 17
23 22 22 10 22 11 25 277 l2 267 -27 3 c-16 2 -29 10 -31 20 -2 12 7 18 40 23
24 4 50 11 58 16 40 23 40 20 40 -296z m-783 283 c17 -23 581 -1471 596 -1533
9 -33 18 -78 22 -101 l6 -41 82 1 82 1 3 -52 3 -53 -291 0 -291 0 3 42 c3 42
4 43 48 50 26 5 54 18 69 33 42 41 35 103 -28 277 l-53 146 -202 -4 c-110 -3
-255 -7 -321 -10 l-121 -6 -70 -213 -70 -213 93 5 93 6 0 -57 0 -56 -236 0
-235 0 3 42 c3 41 5 43 40 49 50 8 83 32 112 81 13 24 149 383 301 798 152
415 283 770 290 788 10 24 20 32 38 32 14 0 29 -6 34 -12z m1214 -214 c71 -39
103 -90 107 -174 5 -85 -8 -126 -59 -184 -99 -112 -276 -89 -343 45 -100 202
103 417 295 313z m339 1 c0 -8 -6 -15 -14 -15 -7 0 -19 -7 -26 -15 -11 -13 -6
-38 26 -140 21 -69 41 -119 45 -113 3 7 28 77 54 156 42 126 50 143 69 140 17
-2 30 -31 75 -161 l54 -159 48 139 c27 76 49 139 49 141 0 1 -9 2 -20 2 -13 0
-20 7 -20 20 0 18 7 20 75 20 60 0 75 -3 75 -15 0 -8 -11 -17 -25 -21 -13 -3
-30 -12 -36 -20 -7 -8 -42 -97 -79 -197 -87 -236 -86 -236 -160 -25 l-55 157
-55 -157 c-37 -107 -60 -158 -71 -160 -13 -2 -30 35 -78 173 -33 97 -64 188
-67 201 -4 17 -13 24 -30 24 -17 0 -24 6 -24 20 0 19 7 20 95 20 78 0 95 -3
95 -15z m-260 -910 l0 -305 30 0 c23 0 30 -4 30 -20 0 -18 -7 -20 -65 -20 -58
0 -65 2 -65 20 0 19 -1 18 -35 -4 -94 -64 -218 -27 -266 79 -22 48 -25 161 -6
208 21 49 67 98 112 118 44 20 135 25 166 9 18 -10 19 -7 19 52 0 35 3 72 6
84 5 18 2 20 -25 16 -26 -4 -31 -1 -31 16 0 16 8 23 38 28 20 4 44 10 52 15
40 22 40 20 40 -296z m1060 258 c112 -53 111 -50 55 -119 -27 -32 -59 -82 -71
-111 -74 -166 -37 -372 88 -491 l35 -33 47 51 c27 29 44 55 40 62 -4 6 -3 8 4
4 13 -8 50 87 64 166 17 99 -24 260 -81 317 -12 12 -22 24 -23 29 -2 4 -7 6
-11 4 -5 -1 -6 2 -3 7 6 10 -18 34 -26 26 -3 -3 -5 5 -4 17 1 18 17 31 81 63
79 40 81 40 195 40 109 0 119 -2 182 -32 90 -42 129 -74 183 -145 64 -85 89
-172 83 -291 -3 -77 -9 -103 -35 -160 -67 -142 -207 -244 -352 -256 -137 -11
-238 13 -332 81 -13 9 -23 6 -52 -16 -79 -60 -217 -88 -332 -67 -136 25 -266
124 -328 251 -31 63 -32 68 -32 195 0 123 2 133 29 188 54 108 156 199 270
239 40 14 74 18 156 15 94 -2 112 -6 170 -34z m-1572 5 c7 -7 12 -24 12 -38 0
-31 -17 -50 -45 -50 -28 0 -45 19 -45 50 0 31 17 50 45 50 12 0 26 -5 33 -12z
m12 -368 l0 -200 25 0 c18 0 25 -5 25 -20 0 -19 -7 -20 -90 -20 -73 0 -90 3
-90 15 0 8 7 15 15 15 27 0 35 47 35 200 l0 150 -31 -7 c-28 -5 -30 -4 -27 18
2 20 10 25 43 27 22 2 44 8 50 13 5 5 17 9 27 9 17 0 18 -14 18 -200z"/>
<path d="M826 2987 c-41 -110 -219 -608 -230 -644 l-7 -23 279 0 280 0 -23 63
c-13 34 -77 207 -142 384 l-119 321 -38 -101z"/>
<path d="M1976 3199 c-37 -29 -60 -113 -51 -188 19 -164 158 -227 223 -101 20
39 23 56 19 125 -4 86 -30 155 -66 175 -33 17 -96 12 -125 -11z"/>
<path d="M1999 2365 c-54 -29 -84 -152 -59 -245 15 -57 67 -110 108 -110 16 0
44 10 63 23 l34 23 3 149 c2 132 1 151 -15 162 -23 17 -101 16 -134 -2z"/>
</g>
</svg>
