<?xml version="1.0" standalone="no"?>
<!DOCTYPE svg PUBLIC "-//W3C//DTD SVG 20010904//EN"
 "http://www.w3.org/TR/2001/REC-SVG-20010904/DTD/svg10.dtd">
<svg version="1.0" xmlns="http://www.w3.org/2000/svg"
 width="271.000000pt" height="259.000000pt" viewBox="0 0 271.000000 259.000000"
 preserveAspectRatio="xMidYMid meet">
<metadata>
Created by potrace 1.16, written by Peter Selinger 2001-2019
</metadata>
<g transform="translate(0.000000,259.000000) scale(0.100000,-0.100000)"
fill="#000000" stroke="none">
<path d="M1195 2225 c-80 -18 -216 -68 -274 -101 -210 -121 -375 -315 -450
-529 -28 -80 -27 -101 4 -109 35 -9 42 -3 50 41 3 21 26 79 50 130 194 411
662 611 1094 467 451 -151 704 -651 561 -1109 -62 -201 -182 -358 -365 -479
-234 -155 -540 -188 -805 -87 -137 52 -298 174 -394 300 -51 67 -122 206 -140
276 -7 28 -18 50 -24 49 -7 -1 -23 -2 -36 -2 -22 -2 -23 -4 -15 -40 29 -129
120 -290 229 -405 195 -206 428 -307 708 -307 388 1 742 243 886 607 48 120
66 219 66 351 -1 178 -35 313 -116 462 -114 209 -320 381 -542 454 -135 45
-359 59 -487 31z"/>
<path d="M1265 2074 c-221 -35 -421 -162 -546 -346 -43 -63 -94 -165 -104
-210 -6 -23 -3 -27 25 -33 17 -4 32 -5 34 -3 1 1 15 34 30 71 130 311 439 492
769 449 299 -39 513 -224 614 -532 25 -78 25 -300 -1 -385 -37 -121 -123 -264
-204 -337 -295 -266 -733 -261 -1012 13 -70 68 -145 184 -177 271 -16 47 -19
48 -48 42 -16 -3 -32 -8 -33 -9 -8 -7 22 -83 60 -155 106 -199 292 -349 508
-407 90 -25 310 -25 400 0 269 72 482 278 568 547 24 77 27 99 26 235 0 143
-1 154 -33 243 -35 102 -89 197 -154 275 -92 108 -265 217 -402 252 -60 16
-263 28 -320 19z"/>
</g>
</svg>
